#tb 0: 1/25
0,          0,          0,        1,    38016, 0xde1a2194
0,          1,          1,        1,    38016, 0x2957f3e5
0,          2,          2,        1,    38016, 0x9df4c6cf
0,          3,          3,        1,    38016, 0xf3db9f2d
0,          4,          4,        1,    38016, 0xd97474db
0,          5,          5,        1,    38016, 0x8e3065fa
0,          6,          6,        1,    38016, 0xc0be49b1
0,          7,          7,        1,    38016, 0xa69c3f06
0,          8,          8,        1,    38016, 0x96bb2e92
0,          9,          9,        1,    38016, 0x1ca232c1
0,         10,         10,        1,    38016, 0x3a06409d
0,         11,         11,        1,    38016, 0xcdce66e5
0,         12,         12,        1,    38016, 0x96387681
0,         13,         13,        1,    38016, 0xd0309561
0,         14,         14,        1,    38016, 0xb7b08c49
0,         15,         15,        1,    38016, 0xf5709355
0,         16,         16,        1,    38016, 0x3c1594ea
0,         17,         17,        1,    38016, 0x9be48a2c
0,         18,         18,        1,    38016, 0xdf7279c3
0,         19,         19,        1,    38016, 0xe3b660f3
0,         20,         20,        1,    38016, 0xd72a3cbe
0,         21,         21,        1,    38016, 0x06a117d1
0,         22,         22,        1,    38016, 0x8f5501b7
0,         23,         23,        1,    38016, 0x8f5afd81
0,         24,         24,        1,    38016, 0x98ecfd2b
0,         25,         25,        1,    38016, 0xd0b103bf
0,         26,         26,        1,    38016, 0xb9a7035c
0,         27,         27,        1,    38016, 0x866c12c7
0,         28,         28,        1,    38016, 0x3a0329f3
0,         29,         29,        1,    38016, 0x725141c1
